<?xml version="1.0" encoding="UTF-8"?>
<!DOCTYPE svg PUBLIC "-//W3C//DTD SVG 1.1//EN" "http://www.w3.org/Graphics/SVG/1.1/DTD/svg11.dtd">
<svg xmlns="http://www.w3.org/2000/svg" version="1.1" width="1024px" height="1024px" style="shape-rendering:geometricPrecision; text-rendering:geometricPrecision; image-rendering:optimizeQuality; fill-rule:evenodd; clip-rule:evenodd" xmlns:xlink="http://www.w3.org/1999/xlink">
<g><path style="opacity:1" fill="#1b222d" d="M -0.5,-0.5 C 340.833,-0.5 682.167,-0.5 1023.5,-0.5C 1023.5,340.833 1023.5,682.167 1023.5,1023.5C 682.167,1023.5 340.833,1023.5 -0.5,1023.5C -0.5,682.167 -0.5,340.833 -0.5,-0.5 Z"/></g>
<g><path style="opacity:1" fill="#f2eadc" d="M 384.5,148.5 C 408.631,148.142 424.131,159.475 431,182.5C 431.83,217.002 414.997,233.169 380.5,231C 364.112,225.947 353.945,215.114 350,198.5C 347.449,171.888 358.949,155.221 384.5,148.5 Z"/></g>
<g><path style="opacity:1" fill="#f2eadc" d="M 626.5,148.5 C 650.793,147.547 666.627,158.547 674,181.5C 677.042,207.275 666.209,223.775 641.5,231C 615.797,234.071 599.297,223.238 592,198.5C 589.408,171.996 600.908,155.33 626.5,148.5 Z"/></g>
<g><path style="opacity:1" fill="#04060d" d="M 560.5,273.5 C 550.167,262.833 539.833,252.167 529.5,241.5C 540.135,250.617 550.635,260.617 561,271.5C 561.692,272.437 561.525,273.103 560.5,273.5 Z"/></g>
<g><path style="opacity:1" fill="#04080e" d="M 493.5,241.5 C 480.035,255.465 466.369,269.299 452.5,283C 451.563,283.692 450.897,283.525 450.5,282.5C 464.272,269.229 477.938,255.729 491.5,242C 492.094,241.536 492.761,241.369 493.5,241.5 Z"/></g>
<g><path style="opacity:1" fill="#010204" d="M 691.5,285.5 C 692.222,285.918 692.722,286.584 693,287.5C 693.83,313.337 693.663,339.003 692.5,364.5C 692.788,338.145 692.455,311.812 691.5,285.5 Z"/></g>
<g><path style="opacity:1" fill="#181a1f" d="M 335.5,274.5 C 334.44,278.18 333.274,281.846 332,285.5C 331.5,301.497 331.333,317.497 331.5,333.5C 319.5,333.5 307.5,333.5 295.5,333.5C 295.037,330.779 294.371,328.112 293.5,325.5C 295.043,326.736 296.043,328.402 296.5,330.5C 307.48,331.499 318.48,331.832 329.5,331.5C 329.333,317.496 329.5,303.496 330,289.5C 330.783,283.971 332.616,278.971 335.5,274.5 Z"/></g>
<g><path style="opacity:1" fill="#f2eadc" d="M 529.5,241.5 C 539.833,252.167 550.167,262.833 560.5,273.5C 560.649,274.552 560.483,275.552 560,276.5C 556.629,279.703 553.462,283.036 550.5,286.5C 549.399,287.8 548.066,288.3 546.5,288C 535,276.5 523.5,265 512,253.5C 491,274.5 470,295.5 449,316.5C 444.265,325.722 444.431,334.722 449.5,343.5C 449.369,344.239 449.536,344.906 450,345.5C 470.681,366.014 491.181,386.68 511.5,407.5C 532.902,386.932 553.736,365.932 574,344.5C 578.157,336.292 578.491,327.959 575,319.5C 573.959,317.415 572.459,315.748 570.5,314.5C 554.347,330.153 538.347,345.986 522.5,362C 513.202,367.463 504.868,366.296 497.5,358.5C 486.5,346.833 475.167,335.5 463.5,324.5C 462.2,323.399 461.7,322.066 462,320.5C 466.348,315.985 470.848,311.651 475.5,307.5C 487.489,318.156 499.156,329.156 510.5,340.5C 510.517,342.028 511.184,342.528 512.5,342C 534.368,320.299 556.035,298.465 577.5,276.5C 585.629,269.541 593.629,262.374 601.5,255C 620.473,243.395 640.473,241.395 661.5,249C 676.886,256.873 686.886,269.039 691.5,285.5C 692.455,311.812 692.788,338.145 692.5,364.5C 703.651,369.321 714.818,374.321 726,379.5C 736.467,364.128 750.3,360.295 767.5,368C 780.862,377.421 785.029,389.921 780,405.5C 771.151,421.453 757.984,426.62 740.5,421C 729.753,415.407 723.42,406.574 721.5,394.5C 711.274,389.926 701.107,385.26 691,380.5C 676.667,394.833 662.333,409.167 648,423.5C 652.847,434.75 650.68,444.584 641.5,453C 627.025,461.227 615.358,458.393 606.5,444.5C 603.9,438.165 603.9,431.832 606.5,425.5C 601.146,419.479 595.479,413.812 589.5,408.5C 581.494,400.161 573.494,391.827 565.5,383.5C 551.167,398 536.833,412.5 522.5,427C 514.021,432.152 506.021,431.486 498.5,425C 485.348,410.682 471.682,396.848 457.5,383.5C 439.401,401.098 421.401,418.932 403.5,437C 412.928,452.247 410.928,465.913 397.5,478C 382.128,487.995 368.295,486.162 356,472.5C 344.789,452.22 349.289,436.72 369.5,426C 376.431,423.872 383.264,424.038 390,426.5C 408.985,408.681 427.485,390.348 445.5,371.5C 438.313,364.481 432.48,356.481 428,347.5C 425.71,338.288 425.044,328.955 426,319.5C 428.349,311.485 431.682,304.152 436,297.5C 428.386,288.764 420.219,280.597 411.5,273C 396.781,263.395 381.781,263.062 366.5,272C 360.399,276.437 356.233,282.27 354,289.5C 351.956,324.774 351.122,360.108 351.5,395.5C 344.833,395.5 338.167,395.5 331.5,395.5C 331.5,380.167 331.5,364.833 331.5,349.5C 319.322,349.172 307.322,349.505 295.5,350.5C 295.5,350.833 295.5,351.167 295.5,351.5C 288.765,365.707 277.431,371.874 261.5,370C 243.039,363.578 235.539,350.744 239,331.5C 249.49,310.782 264.99,305.948 285.5,317C 288.399,319.729 291.066,322.562 293.5,325.5C 294.371,328.112 295.037,330.779 295.5,333.5C 307.5,333.5 319.5,333.5 331.5,333.5C 331.333,317.497 331.5,301.497 332,285.5C 333.274,281.846 334.44,278.18 335.5,274.5C 348.576,251.962 368.243,242.128 394.5,245C 403.573,246.024 411.906,249.024 419.5,254C 430.304,262.97 440.637,272.47 450.5,282.5C 450.897,283.525 451.563,283.692 452.5,283C 466.369,269.299 480.035,255.465 493.5,241.5C 496.297,239.205 498.964,236.705 501.5,234C 507.631,229.775 513.965,229.442 520.5,233C 523.369,236.038 526.369,238.871 529.5,241.5 Z"/></g>
<g><path style="opacity:1" fill="#0f1218" d="M 670.5,293.5 C 671.374,320.829 671.541,348.162 671,375.5C 670.292,376.381 669.458,377.047 668.5,377.5C 670.037,374.091 670.704,370.424 670.5,366.5C 669.244,342.005 669.244,317.671 670.5,293.5 Z"/></g>
<g><path style="opacity:1" fill="#050810" d="M 463.5,324.5 C 475.167,335.5 486.5,346.833 497.5,358.5C 485.92,348.423 474.753,337.757 464,326.5C 463.536,325.906 463.369,325.239 463.5,324.5 Z"/></g>
<g><path style="opacity:1" fill="#090c12" d="M 550.5,286.5 C 551.332,287.329 550.999,288.162 549.5,289C 548.167,289.667 546.833,289.667 545.5,289C 534.333,277.833 523.167,266.667 512,255.5C 491.333,276.167 470.667,296.833 450,317.5C 448.133,321.466 446.967,325.633 446.5,330C 447.268,334.569 448.268,339.069 449.5,343.5C 444.431,334.722 444.265,325.722 449,316.5C 470,295.5 491,274.5 512,253.5C 523.5,265 535,276.5 546.5,288C 548.066,288.3 549.399,287.8 550.5,286.5 Z"/></g>
<g><path style="opacity:1" fill="#070a10" d="M 577.5,276.5 C 556.035,298.465 534.368,320.299 512.5,342C 511.184,342.528 510.517,342.028 510.5,340.5C 532.582,319.92 554.249,298.753 575.5,277C 576.094,276.536 576.761,276.369 577.5,276.5 Z"/></g>
<g><path style="opacity:1" fill="#1b232d" d="M 670.5,293.5 C 669.244,317.671 669.244,342.005 670.5,366.5C 670.704,370.424 670.037,374.091 668.5,377.5C 656.253,388.244 644.42,399.577 633,411.5C 629,410.167 625,410.167 621,411.5C 606.911,397.914 593.411,383.914 580.5,369.5C 584.144,365.012 587.644,360.345 591,355.5C 600.928,335.499 599.428,316.499 586.5,298.5C 593.35,291.484 600.017,284.317 606.5,277C 620.61,264.47 636.276,262.136 653.5,270C 662.713,275.258 668.38,283.091 670.5,293.5 Z"/></g>
<g><path style="opacity:1" fill="#595b5c" d="M 295.5,350.5 C 307.322,349.505 319.322,349.172 331.5,349.5C 331.5,364.833 331.5,380.167 331.5,395.5C 331.167,395.5 330.833,395.5 330.5,395.5C 330.5,380.5 330.5,365.5 330.5,350.5C 318.833,350.5 307.167,350.5 295.5,350.5 Z"/></g>
<g><path style="opacity:1" fill="#000005" d="M 295.5,350.5 C 307.167,350.5 318.833,350.5 330.5,350.5C 330.5,365.5 330.5,380.5 330.5,395.5C 329.504,381.01 329.171,366.343 329.5,351.5C 317.86,351.539 306.526,351.539 295.5,351.5C 295.5,351.167 295.5,350.833 295.5,350.5 Z"/></g>
<g><path style="opacity:1" fill="#03050c" d="M 580.5,369.5 C 593.411,383.914 606.911,397.914 621,411.5C 625,410.167 629,410.167 633,411.5C 644.42,399.577 656.253,388.244 668.5,377.5C 657.369,389.132 646.035,400.632 634.5,412C 630.008,411.285 625.508,411.451 621,412.5C 606.541,399.042 592.374,385.208 578.5,371C 579.044,370.283 579.711,369.783 580.5,369.5 Z"/></g>
<g><path style="opacity:1" fill="#070a0f" d="M 589.5,408.5 C 595.479,413.812 601.146,419.479 606.5,425.5C 603.9,431.832 603.9,438.165 606.5,444.5C 606.565,444.938 606.399,445.272 606,445.5C 605.333,444.167 604.667,442.833 604,441.5C 603.544,435.796 603.544,430.13 604,424.5C 598.568,419.575 593.735,414.242 589.5,408.5 Z"/></g>
<g><path style="opacity:1" fill="#010203" d="M 391.5,515.5 C 392.665,564.332 392.832,613.332 392,662.5C 391.917,664.506 391.417,665.506 390.5,665.5C 391.467,615.514 391.801,565.514 391.5,515.5 Z"/></g>
<g><path style="opacity:1" fill="#fdfdfc" d="M 703.5,516.5 C 704.167,516.5 704.833,516.5 705.5,516.5C 674.671,517.498 643.671,517.831 612.5,517.5C 612.5,581.5 612.5,645.5 612.5,709.5C 645.186,709.889 677.853,709.389 710.5,708C 720.691,706.325 730.358,703.158 739.5,698.5C 735.341,701.749 730.674,704.249 725.5,706C 717.777,707.95 710.111,709.45 702.5,710.5C 698.5,710.5 694.5,710.5 690.5,710.5C 664.167,710.5 637.833,710.5 611.5,710.5C 611.5,645.833 611.5,581.167 611.5,516.5C 642.167,516.5 672.833,516.5 703.5,516.5 Z"/></g>
<g><path style="opacity:1" fill="#7f7f7f" d="M 436.5,516.5 C 436.5,516.167 436.5,515.833 436.5,515.5C 482.5,515.5 528.5,515.5 574.5,515.5C 574.828,526.346 574.494,537.013 573.5,547.5C 573.5,537.167 573.5,526.833 573.5,516.5C 527.833,516.5 482.167,516.5 436.5,516.5 Z"/></g>
<g><path style="opacity:1" fill="#f4f2ea" d="M 391.5,515.5 C 391.801,565.514 391.467,615.514 390.5,665.5C 389.469,667.961 388.802,670.627 388.5,673.5C 387.876,673.083 387.543,672.416 387.5,671.5C 388.182,667.862 388.682,664.195 389,660.5C 389.5,612.834 389.667,565.168 389.5,517.5C 379.167,517.5 368.833,517.5 358.5,517.5C 358.667,561.501 358.5,605.501 358,649.5C 357.667,652.167 357.333,654.833 357,657.5C 356.506,655.866 356.34,654.199 356.5,652.5C 356.5,606.833 356.5,561.167 356.5,515.5C 368.167,515.5 379.833,515.5 391.5,515.5 Z"/></g>
<g><path style="opacity:1" fill="#f6f5f2" d="M 436.5,516.5 C 482.167,516.5 527.833,516.5 573.5,516.5C 573.5,526.833 573.5,537.167 573.5,547.5C 539.663,547.168 505.996,547.502 472.5,548.5C 472.5,564.167 472.5,579.833 472.5,595.5C 500.833,595.5 529.167,595.5 557.5,595.5C 557.5,606.5 557.5,617.5 557.5,628.5C 529.167,628.5 500.833,628.5 472.5,628.5C 472.5,645.5 472.5,662.5 472.5,679.5C 506.167,679.5 539.833,679.5 573.5,679.5C 573.5,689.833 573.5,700.167 573.5,710.5C 527.833,710.5 482.167,710.5 436.5,710.5C 436.5,645.833 436.5,581.167 436.5,516.5 Z"/></g>
<g><path style="opacity:1" fill="#0a0f18" d="M 472.5,548.5 C 506.168,548.333 539.835,548.5 573.5,549C 540.502,549.5 507.502,549.667 474.5,549.5C 474.5,564.5 474.5,579.5 474.5,594.5C 502.502,594.333 530.502,594.5 558.5,595C 559.653,606.09 559.82,617.257 559,628.5C 558.5,629 558,629.5 557.5,630C 529.835,630.5 502.169,630.667 474.5,630.5C 474.5,646.167 474.5,661.833 474.5,677.5C 507.84,677.167 541.173,677.5 574.5,678.5C 574.376,679.107 574.043,679.44 573.5,679.5C 539.833,679.5 506.167,679.5 472.5,679.5C 472.5,662.5 472.5,645.5 472.5,628.5C 500.833,628.5 529.167,628.5 557.5,628.5C 557.5,617.5 557.5,606.5 557.5,595.5C 529.167,595.5 500.833,595.5 472.5,595.5C 472.5,579.833 472.5,564.167 472.5,548.5 Z"/></g>
<g><path style="opacity:1" fill="#f2eadb" d="M 438.5,517.5 C 483.167,517.5 527.833,517.5 572.5,517.5C 572.5,527.167 572.5,536.833 572.5,546.5C 538.833,546.5 505.167,546.5 471.5,546.5C 471.5,563.5 471.5,580.5 471.5,597.5C 499.833,597.5 528.167,597.5 556.5,597.5C 556.5,607.5 556.5,617.5 556.5,627.5C 528.167,627.5 499.833,627.5 471.5,627.5C 471.5,645.167 471.5,662.833 471.5,680.5C 505.167,680.5 538.833,680.5 572.5,680.5C 572.5,690.167 572.5,699.833 572.5,709.5C 527.833,709.5 483.167,709.5 438.5,709.5C 438.5,645.5 438.5,581.5 438.5,517.5 Z"/></g>
<g><path style="opacity:1" fill="#92908d" d="M 703.5,516.5 C 672.833,516.5 642.167,516.5 611.5,516.5C 611.5,581.167 611.5,645.833 611.5,710.5C 610.501,645.669 610.168,580.669 610.5,515.5C 641.671,515.169 672.671,515.502 703.5,516.5 Z"/></g>
<g><path style="opacity:1" fill="#f2eadb" d="M 388.5,673.5 C 380.455,697.379 363.788,710.546 338.5,713C 312.017,717.618 289.851,710.118 272,690.5C 264.935,679.909 261.101,668.242 260.5,655.5C 272.135,654.336 283.802,653.669 295.5,653.5C 296.608,672.94 306.941,682.94 326.5,683.5C 338.772,683.623 347.605,678.29 353,667.5C 354.38,662.414 355.546,657.414 356.5,652.5C 356.34,654.199 356.506,655.866 357,657.5C 357.333,654.833 357.667,652.167 358,649.5C 358.5,605.501 358.667,561.501 358.5,517.5C 368.833,517.5 379.167,517.5 389.5,517.5C 389.667,565.168 389.5,612.834 389,660.5C 388.682,664.195 388.182,667.862 387.5,671.5C 387.543,672.416 387.876,673.083 388.5,673.5 Z"/></g>
<g><path style="opacity:1" fill="#f1e9db" d="M 705.5,516.5 C 730.392,519.235 746.225,532.568 753,556.5C 756.755,580.319 748.255,597.985 727.5,609.5C 757.452,621.404 768.286,643.071 760,674.5C 756.157,685.167 749.324,693.167 739.5,698.5C 730.358,703.158 720.691,706.325 710.5,708C 677.853,709.389 645.186,709.889 612.5,709.5C 612.5,645.5 612.5,581.5 612.5,517.5C 643.671,517.831 674.671,517.498 705.5,516.5 Z"/></g>
<g><path style="opacity:1" fill="#1b232d" d="M 707.5,628.5 C 723.477,633.772 729.644,644.772 726,661.5C 723.274,671.059 717.108,677.059 707.5,679.5C 687.691,679.405 667.691,679.405 647.5,679.5C 647.5,662.5 647.5,645.5 647.5,628.5C 667.695,628.581 687.695,628.581 707.5,628.5 Z"/></g>
<g><path style="opacity:1" fill="#000103" d="M 707.5,628.5 C 687.695,628.581 667.695,628.581 647.5,628.5C 647.5,645.5 647.5,662.5 647.5,679.5C 667.691,679.405 687.691,679.405 707.5,679.5C 687.189,680.44 666.856,680.773 646.5,680.5C 646.5,662.833 646.5,645.167 646.5,627.5C 666.86,627.214 687.194,627.547 707.5,628.5 Z"/></g>
<g><path style="opacity:1" fill="#050810" d="M 707.5,552.5 C 704.284,551.062 700.951,549.895 697.5,549C 680.837,548.5 664.17,548.333 647.5,548.5C 647.5,564.167 647.5,579.833 647.5,595.5C 664.503,595.667 681.503,595.5 698.5,595C 699.766,594.691 700.933,594.191 702,593.5C 702.464,594.094 702.631,594.761 702.5,595.5C 683.906,597.354 665.24,598.021 646.5,597.5C 646.5,580.5 646.5,563.5 646.5,546.5C 662.17,546.333 677.837,546.5 693.5,547C 698.929,547.193 703.596,549.026 707.5,552.5 Z"/></g>
<g><path style="opacity:1" fill="#1b232d" d="M 707.5,552.5 C 711.471,554.719 714.304,558.052 716,562.5C 720.355,577.295 715.855,588.295 702.5,595.5C 702.631,594.761 702.464,594.094 702,593.5C 700.933,594.191 699.766,594.691 698.5,595C 681.503,595.5 664.503,595.667 647.5,595.5C 647.5,579.833 647.5,564.167 647.5,548.5C 664.17,548.333 680.837,548.5 697.5,549C 700.951,549.895 704.284,551.062 707.5,552.5 Z"/></g>
<g><path style="opacity:1" fill="#000208" d="M 436.5,515.5 C 436.5,515.833 436.5,516.167 436.5,516.5C 436.5,581.167 436.5,645.833 436.5,710.5C 481.998,711.333 527.665,711.833 573.5,712C 527.501,712.5 481.501,712.667 435.5,712.5C 435.168,646.665 435.501,580.998 436.5,515.5 Z"/></g>
<g><path style="opacity:1" fill="#01050e" d="M 690.5,710.5 C 694.5,710.5 698.5,710.5 702.5,710.5C 704.199,710.34 705.866,710.506 707.5,711C 675.188,712.581 642.855,712.914 610.5,712C 637.336,711.832 664.003,711.332 690.5,710.5 Z"/></g>
<g><path style="opacity:1" fill="#010308" d="M 762.5,770.5 C 762.5,791.5 762.5,812.5 762.5,833.5C 766.167,833.5 769.833,833.5 773.5,833.5C 773.611,834.117 773.944,834.617 774.5,835C 770.245,835.796 766.079,835.629 762,834.5C 761.173,812.427 761.34,791.093 762.5,770.5 Z"/></g>
<g><path style="opacity:1" fill="#ebe3d6" d="M 661.5,780.5 C 661.5,780.833 661.5,781.167 661.5,781.5C 655.5,781.5 649.5,781.5 643.5,781.5C 643.5,798.5 643.5,815.5 643.5,832.5C 642.668,815.338 642.168,798.005 642,780.5C 641.5,797.83 641.333,815.163 641.5,832.5C 638.5,832.5 635.5,832.5 632.5,832.5C 632.83,814.992 632.497,797.659 631.5,780.5C 626.025,779.511 620.358,779.178 614.5,779.5C 614.5,776.833 614.5,774.167 614.5,771.5C 629.5,771.5 644.5,771.5 659.5,771.5C 659.5,774.167 659.5,776.833 659.5,779.5C 654.156,779.334 648.823,779.501 643.5,780C 649.491,780.499 655.491,780.666 661.5,780.5 Z"/></g>
<g><path style="opacity:1" fill="#e7e6e4" d="M 449.5,824.5 C 448.957,824.44 448.624,824.107 448.5,823.5C 449.609,821.615 450.443,819.615 451,817.5C 451.5,802.17 451.667,786.837 451.5,771.5C 448.5,771.5 445.5,771.5 442.5,771.5C 442.832,786.246 442.499,800.246 441.5,813.5C 441.5,799.167 441.5,784.833 441.5,770.5C 445.5,770.5 449.5,770.5 453.5,770.5C 453.667,785.504 453.5,800.504 453,815.5C 452.378,818.739 451.212,821.739 449.5,824.5 Z"/></g>
<g><path style="opacity:1" fill="#fbfaf8" d="M 661.5,780.5 C 655.491,780.666 649.491,780.499 643.5,780C 648.823,779.501 654.156,779.334 659.5,779.5C 659.5,776.833 659.5,774.167 659.5,771.5C 644.5,771.5 629.5,771.5 614.5,771.5C 614.5,774.167 614.5,776.833 614.5,779.5C 620.358,779.178 626.025,779.511 631.5,780.5C 625.167,780.5 618.833,780.5 612.5,780.5C 612.5,777.167 612.5,773.833 612.5,770.5C 628.833,770.5 645.167,770.5 661.5,770.5C 661.5,773.833 661.5,777.167 661.5,780.5 Z"/></g>
<g><path style="opacity:1" fill="#f0e8dc" d="M 509.5,770.5 C 520.988,772.777 525.488,779.777 523,791.5C 520.754,795.415 517.588,798.248 513.5,800C 523.62,803.155 527.454,809.989 525,820.5C 523.93,824.311 522.097,827.644 519.5,830.5C 516.946,831.606 514.279,832.439 511.5,833C 500.172,833.5 488.838,833.667 477.5,833.5C 477.5,812.5 477.5,791.5 477.5,770.5C 488.167,770.5 498.833,770.5 509.5,770.5 Z"/></g>
<g><path style="opacity:1" fill="#15171a" d="M 511.5,789.5 C 510.961,786.915 509.628,784.748 507.5,783C 501.843,782.501 496.176,782.334 490.5,782.5C 490.5,786.167 490.5,789.833 490.5,793.5C 496.176,793.666 501.843,793.499 507.5,793C 508.333,792.167 509.167,791.333 510,790.5C 510.399,790.728 510.565,791.062 510.5,791.5C 509.657,793.173 508.324,794.34 506.5,795C 500.843,795.499 495.176,795.666 489.5,795.5C 489.5,790.5 489.5,785.5 489.5,780.5C 495.509,780.334 501.509,780.501 507.5,781C 510.841,782.85 512.174,785.683 511.5,789.5 Z"/></g>
<g><path style="opacity:1" fill="#1d252f" d="M 511.5,789.5 C 511.672,790.492 511.338,791.158 510.5,791.5C 510.565,791.062 510.399,790.728 510,790.5C 509.167,791.333 508.333,792.167 507.5,793C 501.843,793.499 496.176,793.666 490.5,793.5C 490.5,789.833 490.5,786.167 490.5,782.5C 496.176,782.334 501.843,782.501 507.5,783C 509.628,784.748 510.961,786.915 511.5,789.5 Z"/></g>
<g><path style="opacity:1" fill="#000103" d="M 661.5,781.5 C 656.025,782.489 650.358,782.822 644.5,782.5C 644.83,799.675 644.497,816.675 643.5,833.5C 643.5,833.167 643.5,832.833 643.5,832.5C 643.5,815.5 643.5,798.5 643.5,781.5C 649.5,781.5 655.5,781.5 661.5,781.5 Z"/></g>
<g><path style="opacity:1" fill="#f1ebe0" d="M 344.5,769.5 C 357.16,767.366 367.993,770.7 377,779.5C 378.167,781.833 379.333,784.167 380.5,786.5C 377.982,788.928 374.982,790.595 371.5,791.5C 368.7,787.869 365.367,784.702 361.5,782C 347.905,777.614 338.738,782.114 334,795.5C 331.137,811.137 337.304,820.804 352.5,824.5C 356.419,824.104 360.086,822.937 363.5,821C 366.378,818.291 369.044,815.458 371.5,812.5C 374.982,813.743 378.316,815.243 381.5,817C 376.017,829.327 366.517,835.16 353,834.5C 338.526,834.593 328.526,827.926 323,814.5C 317.377,793.086 324.544,778.086 344.5,769.5 Z"/></g>
<g><path style="opacity:1" fill="#fcfcfa" d="M 631.5,780.5 C 632.497,797.659 632.83,814.992 632.5,832.5C 635.5,832.5 638.5,832.5 641.5,832.5C 641.333,815.163 641.5,797.83 642,780.5C 642.168,798.005 642.668,815.338 643.5,832.5C 643.5,832.833 643.5,833.167 643.5,833.5C 642.833,833.5 642.167,833.5 641.5,833.5C 638.167,833.5 634.833,833.5 631.5,833.5C 631.5,816.167 631.5,798.833 631.5,781.5C 631.5,781.167 631.5,780.833 631.5,780.5 Z"/></g>
<g><path style="opacity:1" fill="#040810" d="M 246.5,770.5 C 246.5,791.5 246.5,812.5 246.5,833.5C 250.5,833.5 254.5,833.5 258.5,833.5C 258.333,819.163 258.5,804.829 259,790.5C 260.777,793.059 262.277,795.726 263.5,798.5C 262.542,798.047 261.708,797.381 261,796.5C 260.667,808.833 260.333,821.167 260,833.5C 259.5,834 259,834.5 258.5,835C 254.245,835.796 250.079,835.629 246,834.5C 245.173,812.427 245.34,791.093 246.5,770.5 Z"/></g>
<g><path style="opacity:1" fill="#1b222c" d="M 503.5,805.5 C 510.788,806.089 513.788,809.756 512.5,816.5C 512.631,815.761 512.464,815.094 512,814.5C 511.167,818 509,820.167 505.5,821C 500.511,821.499 495.511,821.666 490.5,821.5C 490.5,816.5 490.5,811.5 490.5,806.5C 495.032,806.818 499.366,806.485 503.5,805.5 Z"/></g>
<g><path style="opacity:1" fill="#efe8dc" d="M 762.5,770.5 C 774.229,770.088 785.896,770.588 797.5,772C 809.854,779.406 812.687,789.572 806,802.5C 803.548,805.821 800.382,808.321 796.5,810C 801.167,817.667 805.833,825.333 810.5,833C 805.798,833.828 801.131,833.662 796.5,832.5C 792.374,825.749 788.374,818.915 784.5,812C 781.183,811.502 777.85,811.335 774.5,811.5C 774.825,819.019 774.492,826.352 773.5,833.5C 769.833,833.5 766.167,833.5 762.5,833.5C 762.5,812.5 762.5,791.5 762.5,770.5 Z"/></g>
<g><path style="opacity:1" fill="#1b212a" d="M 774.5,780.5 C 779.511,780.334 784.511,780.501 789.5,781C 796.053,783.73 798.22,788.563 796,795.5C 794.786,797.049 793.286,798.215 791.5,799C 785.928,800.351 780.262,800.851 774.5,800.5C 774.5,793.833 774.5,787.167 774.5,780.5 Z"/></g>
<g><path style="opacity:1" fill="#080d18" d="M 631.5,781.5 C 631.5,798.833 631.5,816.167 631.5,833.5C 634.833,833.5 638.167,833.5 641.5,833.5C 641.918,834.222 642.584,834.722 643.5,835C 639.5,835.667 635.5,835.667 631.5,835C 631,834.5 630.5,834 630,833.5C 629.5,816.503 629.333,799.503 629.5,782.5C 623.824,782.666 618.157,782.499 612.5,782C 618.825,781.5 625.158,781.334 631.5,781.5 Z"/></g>
<g><path style="opacity:1" fill="#f1eadd" d="M 599.5,817.5 C 600.812,822.935 602.812,828.101 605.5,833C 600.798,833.828 596.131,833.662 591.5,832.5C 589.752,828.258 588.418,823.924 587.5,819.5C 578.494,819.334 569.494,819.5 560.5,820C 558.936,824.19 557.269,828.356 555.5,832.5C 551.016,833.811 546.683,833.811 542.5,832.5C 550.687,812.108 558.353,791.441 565.5,770.5C 570.875,770.172 576.208,770.505 581.5,771.5C 587.555,786.922 593.555,802.255 599.5,817.5 Z"/></g>
<g><path style="opacity:1" fill="#1b2129" d="M 573.5,782.5 C 577.311,791.146 580.311,800.146 582.5,809.5C 576.463,809.829 570.463,809.496 564.5,808.5C 567.514,799.812 570.514,791.146 573.5,782.5 Z"/></g>
<g><path style="opacity:1" fill="#060a13" d="M 209.5,770.5 C 209.5,791.5 209.5,812.5 209.5,833.5C 213.5,833.5 217.5,833.5 221.5,833.5C 221.5,812.833 221.5,792.167 221.5,771.5C 222.117,771.389 222.617,771.056 223,770.5C 223.667,791.5 223.667,812.5 223,833.5C 222.5,834 222,834.5 221.5,835C 217.245,835.796 213.079,835.629 209,834.5C 208.173,812.427 208.34,791.093 209.5,770.5 Z"/></g>
<g><path style="opacity:1" fill="#f7f5f0" d="M 209.5,770.5 C 213.702,770.183 217.702,770.517 221.5,771.5C 221.5,792.167 221.5,812.833 221.5,833.5C 217.5,833.5 213.5,833.5 209.5,833.5C 209.5,812.5 209.5,791.5 209.5,770.5 Z"/></g>
<g><path style="opacity:1" fill="#f1e8da" d="M 211.5,771.5 C 214.5,771.5 217.5,771.5 220.5,771.5C 220.5,791.833 220.5,812.167 220.5,832.5C 217.5,832.5 214.5,832.5 211.5,832.5C 211.5,812.167 211.5,791.833 211.5,771.5 Z"/></g>
<g><path style="opacity:1" fill="#efe9dd" d="M 246.5,770.5 C 251.099,770.2 255.599,770.533 260,771.5C 269.333,785.5 278.667,799.5 288,813.5C 288.5,799.171 288.667,784.837 288.5,770.5C 292.5,770.5 296.5,770.5 300.5,770.5C 300.5,791.5 300.5,812.5 300.5,833.5C 296.486,833.666 292.486,833.499 288.5,833C 280.303,821.318 271.97,809.818 263.5,798.5C 262.277,795.726 260.777,793.059 259,790.5C 258.5,804.829 258.333,819.163 258.5,833.5C 254.5,833.5 250.5,833.5 246.5,833.5C 246.5,812.5 246.5,791.5 246.5,770.5 Z"/></g>
<g><path style="opacity:1" fill="#0c1019" d="M 542.5,832.5 C 546.683,833.811 551.016,833.811 555.5,832.5C 557.269,828.356 558.936,824.19 560.5,820C 569.494,819.5 578.494,819.334 587.5,819.5C 588.418,823.924 589.752,828.258 591.5,832.5C 596.131,833.662 600.798,833.828 605.5,833C 602.812,828.101 600.812,822.935 599.5,817.5C 601.819,821.393 603.986,826.059 606,831.5C 606.684,832.784 606.517,833.951 605.5,835C 600.833,835.667 596.167,835.667 591.5,835C 588.943,830.828 587.276,826.328 586.5,821.5C 578.16,821.334 569.827,821.5 561.5,822C 559.796,826.506 557.796,830.84 555.5,835C 551.167,835.667 546.833,835.667 542.5,835C 541.205,833.179 541.205,832.345 542.5,832.5 Z"/></g>
<g><path style="opacity:1" fill="#020305" d="M 503.5,805.5 C 499.366,806.485 495.032,806.818 490.5,806.5C 490.5,811.5 490.5,816.5 490.5,821.5C 495.511,821.666 500.511,821.499 505.5,821C 509,820.167 511.167,818 512,814.5C 512.464,815.094 512.631,815.761 512.5,816.5C 511.746,819.091 510.079,820.924 507.5,822C 501.509,822.499 495.509,822.666 489.5,822.5C 489.5,816.833 489.5,811.167 489.5,805.5C 494.167,805.5 498.833,805.5 503.5,805.5 Z"/></g>
<g><path style="opacity:1" fill="#f0e9de" d="M 699.5,769.5 C 713.908,767.025 726.075,771.025 736,781.5C 743.377,792.905 744.377,804.905 739,817.5C 728.443,833.439 713.943,838.605 695.5,833C 681.754,827.071 675.088,816.571 675.5,801.5C 675.776,784.916 683.776,774.249 699.5,769.5 Z"/></g>
<g><path style="opacity:1" fill="#16181b" d="M 719.5,820.5 C 727.098,813.468 729.598,804.802 727,794.5C 723.803,785.725 717.469,781.392 708,781.5C 700.003,781.66 694.337,785.326 691,792.5C 689.989,797.936 689.156,803.27 688.5,808.5C 686.249,786.584 695.916,777.75 717.5,782C 725.853,786.206 729.853,793.04 729.5,802.5C 729.704,810.622 726.371,816.622 719.5,820.5 Z"/></g>
<g><path style="opacity:1" fill="#1b232c" d="M 719.5,820.5 C 716.32,822.867 712.653,823.867 708.5,823.5C 697.804,823.797 691.137,818.797 688.5,808.5C 689.156,803.27 689.989,797.936 691,792.5C 694.337,785.326 700.003,781.66 708,781.5C 717.469,781.392 723.803,785.725 727,794.5C 729.598,804.802 727.098,813.468 719.5,820.5 Z"/></g>
<g><path style="opacity:1" fill="#f1eade" d="M 422.5,822.5 C 431.507,825.163 437.84,822.163 441.5,813.5C 442.499,800.246 442.832,786.246 442.5,771.5C 445.5,771.5 448.5,771.5 451.5,771.5C 451.667,786.837 451.5,802.17 451,817.5C 450.443,819.615 449.609,821.615 448.5,823.5C 448.624,824.107 448.957,824.44 449.5,824.5C 445.157,830.168 439.491,833.502 432.5,834.5C 419.418,836.373 409.585,831.707 403,820.5C 401.559,803.89 401.059,787.223 401.5,770.5C 405.5,770.5 409.5,770.5 413.5,770.5C 413.333,785.17 413.5,799.837 414,814.5C 415.387,818.721 418.221,821.388 422.5,822.5 Z"/></g>
<g><path style="opacity:1" fill="#0d1016" d="M 422.5,822.5 C 418.221,821.388 415.387,818.721 414,814.5C 413.5,799.837 413.333,785.17 413.5,770.5C 409.5,770.5 405.5,770.5 401.5,770.5C 401.059,787.223 401.559,803.89 403,820.5C 409.585,831.707 419.418,836.373 432.5,834.5C 433.552,834.351 434.552,834.517 435.5,835C 419.944,838.635 408.444,833.469 401,819.5C 399.393,802.887 399.059,786.22 400,769.5C 404.667,768.167 409.333,768.167 414,769.5C 414.333,784.167 414.667,798.833 415,813.5C 416.573,818.071 419.74,820.904 424.5,822C 423.906,822.464 423.239,822.631 422.5,822.5 Z"/></g>
<g><path style="opacity:1" fill="#1e2026" d="M 509.5,770.5 C 498.833,770.5 488.167,770.5 477.5,770.5C 477.5,791.5 477.5,812.5 477.5,833.5C 488.838,833.667 500.172,833.5 511.5,833C 514.279,832.439 516.946,831.606 519.5,830.5C 517.035,832.837 514.035,834.337 510.5,835C 498.924,835.82 487.424,835.654 476,834.5C 475.333,812.833 475.333,791.167 476,769.5C 487.816,768.074 499.649,768.241 511.5,770C 510.906,770.464 510.239,770.631 509.5,770.5 Z"/></g>
</svg>
